<svg id="Offer_value" data-name="Offer value" xmlns="http://www.w3.org/2000/svg" width="14.003" height="26.82" viewBox="0 0 14.003 26.82">
  <path id="Path_33937" data-name="Path 33937" d="M8.685.3A8.29,8.29,0,0,1,4.721-.6,9.616,9.616,0,0,1,1.695-3.21l1.9-1.9A7.491,7.491,0,0,0,5.816-2.966,5.585,5.585,0,0,0,8.79-2.2a4.844,4.844,0,0,0,2.959-.833A2.753,2.753,0,0,0,12.87-5.378a3.033,3.033,0,0,0-.544-1.871,4.2,4.2,0,0,0-1.44-1.193,14.047,14.047,0,0,0-1.972-.836q-1.076-.367-2.153-.8a9.084,9.084,0,0,1-1.973-1.091,4.854,4.854,0,0,1-1.44-1.695,5.676,5.676,0,0,1-.544-2.644,5.218,5.218,0,0,1,.855-3.015,5.52,5.52,0,0,1,2.329-1.924,7.919,7.919,0,0,1,3.319-.671,7.461,7.461,0,0,1,3.431.795,7.71,7.71,0,0,1,2.591,2.093l-1.9,1.9a7.533,7.533,0,0,0-1.942-1.688,4.368,4.368,0,0,0-2.243-.6,4.44,4.44,0,0,0-2.734.746A2.564,2.564,0,0,0,5.52-15.7a2.549,2.549,0,0,0,.555,1.71,4.439,4.439,0,0,0,1.463,1.1,17.688,17.688,0,0,0,1.984.814q1.076.371,2.164.821a8.822,8.822,0,0,1,2,1.144,5.139,5.139,0,0,1,1.462,1.785A6.038,6.038,0,0,1,15.7-5.58,5.293,5.293,0,0,1,13.8-1.264,7.8,7.8,0,0,1,8.685.3ZM8.273,3V-23.82h1.995V3Z" transform="translate(-1.695 23.82)" fill="#bcc4d0"/>
</svg>
