<svg xmlns="http://www.w3.org/2000/svg" width="39.845" height="31.434" viewBox="0 0 39.845 31.434">
  <g id="incentive" transform="translate(1 1)">
    <path id="Path_34021" data-name="Path 34021" d="M7.2,5H36.64a4.2,4.2,0,0,1,4.2,4.2v5.256a5.256,5.256,0,1,0,0,10.512v5.256a4.2,4.2,0,0,1-4.2,4.2H7.2a4.2,4.2,0,0,1-4.2-4.2V24.973A5.256,5.256,0,1,0,3,14.461V9.2A4.2,4.2,0,0,1,7.2,5Z" transform="translate(-3 -5)" fill="none" stroke="#f56515" stroke-linecap="round" stroke-linejoin="round" stroke-width="2"/>
    <path id="Path_34022" data-name="Path 34022" d="M14.5,5V9.2" transform="translate(9.679 -5)" fill="none" stroke="#f56515" stroke-linecap="round" stroke-linejoin="round" stroke-width="2"/>
    <path id="Path_34023" data-name="Path 34023" d="M14.5,11v4.2" transform="translate(9.679 1.615)" fill="none" stroke="#f56515" stroke-linecap="round" stroke-linejoin="round" stroke-width="2"/>
    <path id="Path_34024" data-name="Path 34024" d="M14.5,17v4.2" transform="translate(9.679 8.229)" fill="none" stroke="#f56515" stroke-linecap="round" stroke-linejoin="round" stroke-width="2"/>
  </g>
</svg>
